<?xml version="1.0" encoding="utf-8"?>
<!-- Generator: Adobe Illustrator 18.1.0, SVG Export Plug-In . SVG Version: 6.00 Build 0)  -->
<svg version="1.1" id="Artwork" xmlns="http://www.w3.org/2000/svg" xmlns:xlink="http://www.w3.org/1999/xlink" x="0px" y="0px"
	 viewBox="0 0 120 120" enable-background="new 0 0 120 120" xml:space="preserve">
<g>
	<g>
		<path fill="#222222" d="M62.4,55.8c-3.1-1.5-6.1-2.2-6.1-4.7c0-2.2,1.3-2.9,3.3-2.9c1.5,0,2.7,0.5,3.9,1.5
			c0.9,0.8,1.9,1.2,3.1,1.2c2.3,0,4-2.2,4-4.2c0-1.5-0.8-2.9-2.2-3.9c-1.2-0.9-2.6-1.7-4.1-2.2v-2c0-1.9-1.5-3.5-3.5-3.5h-2.5
			c-1.9,0-3.5,1.5-3.5,3.5v2.2c-4.4,1.8-7,6.2-7,10.4c0,6.8,6,9.6,11,12c4,1.8,5.3,3,5.3,4.7c0,2.9-2.4,4.3-5.2,4.3
			c-1.6,0-3-0.2-4.8-1.5c-0.9-0.8-1.9-1.4-3.2-1.4c-2.3,0-4,2.2-4,4.2c0,1.5,0.8,2.7,2.1,3.8c1.5,1.2,3.8,2.2,5.6,2.7v1.5
			c0,1.9,1.5,3.4,3.5,3.4h2.5c1.9,0,3.5-1.5,3.5-3.4v-1.8c5-1.7,8.5-5.9,8.5-12.1C72.8,61.5,68.5,58.8,62.4,55.8z"/>
		<path fill="#222222" d="M60,13.1c-25.9,0-46.9,21-46.9,46.9s21,46.9,46.9,46.9s46.9-21,46.9-46.9S85.9,13.1,60,13.1z M60,93.5
			c-18.5,0-33.5-15-33.5-33.5s15-33.5,33.5-33.5s33.5,15,33.5,33.5S78.5,93.5,60,93.5z"/>
	</g>
</g>
</svg>
