<?xml version="1.0" encoding="utf-8"?>
<!-- Generator: Adobe Illustrator 18.1.0, SVG Export Plug-In . SVG Version: 6.00 Build 0)  -->
<svg version="1.1" id="Layer_1" xmlns="http://www.w3.org/2000/svg" xmlns:xlink="http://www.w3.org/1999/xlink" x="0px" y="0px"
	 viewBox="-43 45 32 32" enable-background="new -43 45 32 32" xml:space="preserve">
<g>
	<path fill="#222222" d="M-41.7,56.7c-0.7,0.3-1.2,0.9-1.3,1.6c-0.1,0.7,0.2,1.4,0.8,1.9l6.5,4.7l23.1-18.1L-33,66.8l8.9,6.5
		c0.6,0.4,1.3,0.5,2,0.3c0.7-0.2,1.2-0.7,1.4-1.4l9.5-26c0.1-0.3,0-0.6-0.2-0.8c-0.2-0.2-0.5-0.3-0.8-0.2L-41.7,56.7z"/>
	<path fill="#222222" d="M-37.2,66.5l0.1,0.3l1.3,6.9c0.1,0.5,0.4,0.9,0.9,1.1c0.5,0.2,1,0.2,1.5-0.1c1.8-1.1,4-2.6,4-2.7
		L-37.2,66.5z"/>
</g>
</svg>
