<?xml version="1.0" encoding="utf-8"?>
<!-- Generator: Adobe Illustrator 18.1.0, SVG Export Plug-In . SVG Version: 6.00 Build 0)  -->
<svg version="1.1" id="Layer_1" xmlns="http://www.w3.org/2000/svg" xmlns:xlink="http://www.w3.org/1999/xlink" x="0px" y="0px"
	 viewBox="-7.5 48.5 25 25" enable-background="new -7.5 48.5 25 25" xml:space="preserve">
<g>
	<g>
		<g>
			<g>
				<path fill="#FFFFFF" d="M6.3,72.5H3.8c-0.4,0-0.5,0-1.8-3.1l-1-0.4c-2.7,1.2-3,1.2-3.1,1.2h-0.2L-2.4,70l-1.7-1.7
					c-0.3-0.3-0.4-0.4,1-3.4l-0.4-0.9c-3.2-1.2-3.2-1.3-3.2-1.7v-2.4c0-0.4,0-0.5,3.2-1.7l0.4-0.9c-1.4-3-1.3-3.1-1.1-3.4l1.9-1.8
					l0.2,0c0.3,0,1.3,0.4,3.1,1.1l1-0.4c1.2-3.1,1.3-3.1,1.7-3.1h2.5c0.4,0,0.5,0,1.8,3.1l1,0.4c2.7-1.2,3-1.2,3.1-1.2h0.2l0.2,0.1
					l1.7,1.7c0.3,0.3,0.4,0.4-1,3.5l0.4,0.9c3.2,1.1,3.2,1.3,3.2,1.7v2.4c0,0.4,0,0.5-3.2,1.7l-0.4,0.9c1.4,3,1.3,3.1,1.1,3.4
					l-1.9,1.9l-0.2,0c-0.3,0-1.3-0.4-3.1-1.1l-1,0.4C6.8,72.5,6.7,72.5,6.3,72.5z M4.1,71.5H6c0.2-0.5,0.7-1.7,1.1-2.7l0.1-0.2
					L9,67.9L9.2,68c1.1,0.5,2.3,0.9,2.8,1.1l1.4-1.3c-0.2-0.5-0.7-1.7-1.2-2.7L12,64.9l0.7-1.7L13,63c1.1-0.4,2.3-0.9,2.8-1.1V60
					C15.3,59.8,14,59.3,13,59l-0.2-0.1L12,57.1l0.1-0.2c0.5-1,1-2.2,1.1-2.7l-1.4-1.3c-0.4,0.2-1.7,0.7-2.7,1.2l-0.2,0.1l-1.8-0.7
					l-0.1-0.2c-0.4-1-0.9-2.3-1.2-2.7H4c-0.2,0.5-0.7,1.7-1.1,2.7l-0.1,0.2L1,54.1l-0.2-0.1c-1.1-0.4-2.3-0.9-2.8-1.1l-1.4,1.3
					c0.2,0.5,0.7,1.7,1.2,2.7l0.1,0.2l-0.7,1.7L-3,59c-1.1,0.4-2.3,0.9-2.8,1.1V62c0.5,0.2,1.7,0.7,2.8,1.1l0.2,0.1l0.7,1.7
					l-0.1,0.2c-0.5,1-1,2.2-1.1,2.7l1.4,1.3c0.4-0.2,1.7-0.7,2.7-1.2l0.2-0.1l1.8,0.7l0.1,0.2C3.3,69.8,3.8,71.1,4.1,71.5z M5,65
					c-2.3,0-4.1-1.8-4.1-4c0-2.2,1.8-4,4.1-4c2.3,0,4.1,1.8,4.1,4C9.1,63.2,7.3,65,5,65z M5,58c-1.7,0-3.1,1.4-3.1,3
					c0,1.7,1.4,3,3.1,3c1.7,0,3.1-1.4,3.1-3C8.1,59.3,6.7,58,5,58z"/>
			</g>
		</g>
	</g>
</g>
</svg>
